<svg width="40" height="40" viewBox="0 0 40 40" fill="none" xmlns="http://www.w3.org/2000/svg">
<path d="M25.0063 37.2238V30.8572C25.068 30.0727 24.9621 29.2841 24.6954 28.5438C24.4288 27.8035 24.0076 27.1284 23.4599 26.5634C28.6256 25.9876 34.0545 24.0299 34.0545 15.0476C34.0541 12.7507 33.1706 10.5419 31.5868 8.87836C32.3368 6.86886 32.2837 4.64768 31.4388 2.67625C31.4388 2.67625 29.4975 2.10046 25.0063 5.11103C21.2357 4.08912 17.2611 4.08912 13.4905 5.11103C8.99928 2.10046 7.05804 2.67625 7.05804 2.67625C6.21306 4.64768 6.16004 6.86886 6.90998 8.87836C5.31442 10.5542 4.42999 12.783 4.44229 15.0969C4.44229 24.0135 9.8712 25.9712 15.0369 26.6128C14.4956 27.1721 14.0782 27.8391 13.8118 28.5703C13.5453 29.3016 13.4359 30.0808 13.4905 30.8572V37.2238M13.4905 32.2885C5.26485 34.7561 5.26485 28.1757 1.97461 27.3531L13.4905 32.2885Z" stroke="#7D0216" stroke-width="3" stroke-linecap="round" stroke-linejoin="round"/>
</svg>
