<svg width="33" height="33" viewBox="0 0 33 33" fill="none" xmlns="http://www.w3.org/2000/svg">
<path d="M23.3062 2.74185H9.59687C5.81113 2.74185 2.74219 5.8108 2.74219 9.59653V23.3059C2.74219 27.0916 5.81113 30.1606 9.59687 30.1606H23.3062C27.092 30.1606 30.1609 27.0916 30.1609 23.3059V9.59653C30.1609 5.8108 27.092 2.74185 23.3062 2.74185Z" stroke="#7D0216" stroke-width="3" stroke-linecap="round" stroke-linejoin="round"/>
<path d="M21.9355 15.5875C22.1047 16.7285 21.9098 17.8938 21.3786 18.9176C20.8473 19.9414 20.0068 20.7716 18.9765 21.2902C17.9462 21.8088 16.7787 21.9893 15.6399 21.806C14.5011 21.6228 13.4491 21.0851 12.6335 20.2695C11.8179 19.4539 11.2802 18.4019 11.097 17.2631C10.9137 16.1243 11.0943 14.9568 11.6128 13.9265C12.1314 12.8962 12.9616 12.0557 13.9854 11.5244C15.0093 10.9932 16.1745 10.7983 17.3155 10.9675C18.4793 11.1401 19.5567 11.6824 20.3887 12.5143C21.2206 13.3463 21.7629 14.4237 21.9355 15.5875Z" stroke="#7D0216" stroke-width="3" stroke-linecap="round" stroke-linejoin="round"/>
<path d="M23.9922 8.9111H24.007" stroke="#7D0216" stroke-width="3" stroke-linecap="round" stroke-linejoin="round"/>
</svg>
