<svg width="40" height="40" viewBox="0 0 40 40" fill="none" xmlns="http://www.w3.org/2000/svg">
<path d="M26.8063 13.1609C29.4242 13.1609 31.9348 14.2009 33.7859 16.052C35.6371 17.9031 36.677 20.4138 36.677 23.0317V34.5475H30.0965V23.0317C30.0965 22.1591 29.7499 21.3222 29.1328 20.7051C28.5158 20.0881 27.6789 19.7414 26.8063 19.7414C25.9337 19.7414 25.0968 20.0881 24.4797 20.7051C23.8627 21.3222 23.516 22.1591 23.516 23.0317V34.5475H16.9355V23.0317C16.9355 20.4138 17.9755 17.9031 19.8266 16.052C21.6777 14.2009 24.1884 13.1609 26.8063 13.1609V13.1609Z" stroke="#7D0216" stroke-width="3" stroke-linecap="round" stroke-linejoin="round"/>
<path d="M10.3559 14.8061H3.77539V34.5476H10.3559V14.8061Z" stroke="#7D0216" stroke-width="3" stroke-linecap="round" stroke-linejoin="round"/>
<path d="M7.06563 9.87074C8.88279 9.87074 10.3559 8.39765 10.3559 6.5805C10.3559 4.76335 8.88279 3.29025 7.06563 3.29025C5.24848 3.29025 3.77539 4.76335 3.77539 6.5805C3.77539 8.39765 5.24848 9.87074 7.06563 9.87074Z" stroke="#7D0216" stroke-width="3" stroke-linecap="round" stroke-linejoin="round"/>
</svg>
