<svg width="46" height="34" viewBox="0 0 46 34" fill="none" xmlns="http://www.w3.org/2000/svg">
<path d="M43.2861 6.63833C43.0584 5.7287 42.5947 4.89526 41.9419 4.22219C41.289 3.54913 40.47 3.06027 39.5678 2.805C36.2711 2 23.0844 2 23.0844 2C23.0844 2 9.89776 2 6.6011 2.88167C5.69882 3.13694 4.87989 3.62579 4.22701 4.29886C3.57413 4.97193 3.11044 5.80537 2.88276 6.715C2.27942 10.0606 1.9843 13.4546 2.0011 16.8542C1.97959 20.2793 2.27473 23.6992 2.88276 27.07C3.13377 27.9514 3.60785 28.7531 4.2592 29.3977C4.91056 30.0424 5.71717 30.5081 6.6011 30.75C9.89776 31.6317 23.0844 31.6317 23.0844 31.6317C23.0844 31.6317 36.2711 31.6317 39.5678 30.75C40.47 30.4947 41.289 30.0059 41.9419 29.3328C42.5947 28.6597 43.0584 27.8263 43.2861 26.9167C43.8848 23.5962 44.1799 20.2281 44.1678 16.8542C44.1893 13.429 43.8941 10.0092 43.2861 6.63833V6.63833Z" stroke="#7D0216" stroke-width="3" stroke-linecap="round" stroke-linejoin="round"/>
<path d="M18.7715 23.1217L29.7923 16.8542L18.7715 10.5867V23.1217Z" stroke="#7D0216" stroke-width="3" stroke-linecap="round" stroke-linejoin="round"/>
</svg>
